# xmcd
#
# Track frame offsets:
# 150
# 21386
# 39606
# 57748
# 76151
# 92187
# 111682
# 132164
# 151113
# 167435
# 184615
# 202862
# 220900
# 244450
# 314150
#
# Disc length: 4353 seconds
#
#
# Revision: 9
# Processed by: cddbd v1.5.1PL0 Copyright (c) Steve Scherf et al.
# Submitted via: FreeRIP 2.942 
#
DISCID=d710ff0f
DTITLE=Joss Stone - Mind Body and Soul
DYEAR=2004
DGENRE=Soul
TTITLE0=Right to Be Wrong
TTITLE1=Jet Lag
TTITLE2=You Had Me
TTITLE3=Spoiled
TTITLE4=Don't Cha Wanna Ride
TTITLE5=Less Is More
TTITLE6=Security
TTITLE7=Young at Heart
TTITLE8=Snakes and Ladders
TTITLE9=Understand
TTITLE10=Don't Know How
TTITLE11=Torn and Tattered
TTITLE12=Killing Time
TTITLE13=Sleep Like a Child
TTITLE14=Holding out for a Hero
EXTD=
EXTT0=
EXTT1=
EXTT2=
EXTT3=
EXTT4=
EXTT5=
EXTT6=
EXTT7=
EXTT8=
EXTT9=
EXTT10=
EXTT11=
EXTT12=
EXTT13=
EXTT14=
PLAYORDER=
